<mxfile host="65bd71144e">
    <diagram id="QQV0_z64_W-B9Ky7e0yz" name="ページ1">
        <mxGraphModel dx="809" dy="339" grid="1" gridSize="10" guides="1" tooltips="1" connect="1" arrows="1" fold="1" page="1" pageScale="1" pageWidth="827" pageHeight="1169" math="0" shadow="0">
            <root>
                <mxCell id="0"/>
                <mxCell id="1" style="locked=1;" parent="0" visible="0"/>
                <mxCell id="2" value="" style="rounded=0;whiteSpace=wrap;html=1;strokeColor=#23445d;fillColor=#E6E6E6;movable=0;resizable=0;rotatable=0;deletable=0;editable=0;connectable=0;" parent="1" vertex="1">
                    <mxGeometry width="1180" height="690" as="geometry"/>
                </mxCell>
                <mxCell id="3" value="" style="rounded=0;whiteSpace=wrap;html=1;movable=0;resizable=0;rotatable=0;deletable=0;editable=0;connectable=0;" parent="1" vertex="1">
                    <mxGeometry width="1180" height="40" as="geometry"/>
                </mxCell>
                <mxCell id="4" value="&lt;font style=&quot;vertical-align: inherit&quot;&gt;&lt;font style=&quot;vertical-align: inherit ; font-size: 19px&quot;&gt;経費計上入力&lt;/font&gt;&lt;/font&gt;" style="text;html=1;strokeColor=none;fillColor=none;align=left;verticalAlign=middle;whiteSpace=wrap;rounded=0;fontSize=14;movable=0;resizable=0;rotatable=0;deletable=0;editable=0;connectable=0;" parent="1" vertex="1">
                    <mxGeometry x="71.5" y="7" width="250" height="30" as="geometry"/>
                </mxCell>
                <mxCell id="5" value="" style="rounded=0;whiteSpace=wrap;html=1;fontSize=14;align=left;fillColor=#000000;gradientColor=#000000;movable=0;resizable=0;rotatable=0;deletable=0;editable=0;connectable=0;" parent="1" vertex="1">
                    <mxGeometry x="1010" y="18" width="20" height="5" as="geometry"/>
                </mxCell>
                <mxCell id="6" value="" style="verticalLabelPosition=bottom;verticalAlign=top;html=1;shape=mxgraph.basic.frame;dx=2.52;fontSize=14;fillColor=#f5f5f5;gradientColor=#b3b3b3;strokeColor=#666666;movable=0;resizable=0;rotatable=0;deletable=0;editable=0;connectable=0;" parent="1" vertex="1">
                    <mxGeometry x="1072.5" y="11" width="20" height="20" as="geometry"/>
                </mxCell>
                <mxCell id="7" value="" style="verticalLabelPosition=bottom;verticalAlign=top;html=1;shape=mxgraph.basic.x;fontSize=14;fillColor=#000000;gradientColor=#000000;movable=0;resizable=0;rotatable=0;deletable=0;editable=0;connectable=0;" parent="1" vertex="1">
                    <mxGeometry x="1133" y="11" width="20" height="20" as="geometry"/>
                </mxCell>
                <mxCell id="8" value="" style="rhombus;whiteSpace=wrap;html=1;strokeWidth=2;fillWeight=-1;hachureGap=8;fillStyle=cross-hatch;fillColor=#006600;sketch=1;movable=0;resizable=0;rotatable=0;deletable=0;editable=0;connectable=0;" parent="1" vertex="1">
                    <mxGeometry x="35" y="6.5" width="30" height="30" as="geometry"/>
                </mxCell>
                <mxCell id="9" value="" style="rounded=0;whiteSpace=wrap;html=1;movable=0;resizable=0;rotatable=0;deletable=0;editable=0;connectable=0;" parent="1" vertex="1">
                    <mxGeometry width="1180" height="40" as="geometry"/>
                </mxCell>
                <mxCell id="10" value="&lt;span style=&quot;font-size: 19px&quot;&gt;ページタイトル&lt;/span&gt;" style="text;html=1;strokeColor=none;fillColor=none;align=left;verticalAlign=middle;whiteSpace=wrap;rounded=0;fontSize=14;movable=0;resizable=0;rotatable=0;deletable=0;editable=0;connectable=0;" parent="1" vertex="1">
                    <mxGeometry x="71.5" y="7" width="250" height="30" as="geometry"/>
                </mxCell>
                <mxCell id="11" value="" style="rounded=0;whiteSpace=wrap;html=1;fontSize=14;align=left;fillColor=#000000;gradientColor=#000000;movable=0;resizable=0;rotatable=0;deletable=0;editable=0;connectable=0;" parent="1" vertex="1">
                    <mxGeometry x="1010" y="18" width="20" height="5" as="geometry"/>
                </mxCell>
                <mxCell id="12" value="" style="verticalLabelPosition=bottom;verticalAlign=top;html=1;shape=mxgraph.basic.frame;dx=2.52;fontSize=14;fillColor=#f5f5f5;gradientColor=#b3b3b3;strokeColor=#666666;movable=0;resizable=0;rotatable=0;deletable=0;editable=0;connectable=0;" parent="1" vertex="1">
                    <mxGeometry x="1072.5" y="11" width="20" height="20" as="geometry"/>
                </mxCell>
                <mxCell id="13" value="" style="verticalLabelPosition=bottom;verticalAlign=top;html=1;shape=mxgraph.basic.x;fontSize=14;fillColor=#000000;gradientColor=#000000;movable=0;resizable=0;rotatable=0;deletable=0;editable=0;connectable=0;" parent="1" vertex="1">
                    <mxGeometry x="1133" y="11" width="20" height="20" as="geometry"/>
                </mxCell>
                <mxCell id="14" value="" style="rhombus;whiteSpace=wrap;html=1;strokeWidth=2;fillWeight=-1;hachureGap=8;fillStyle=cross-hatch;fillColor=#006600;sketch=1;movable=0;resizable=0;rotatable=0;deletable=0;editable=0;connectable=0;" parent="1" vertex="1">
                    <mxGeometry x="35" y="6.5" width="30" height="30" as="geometry"/>
                </mxCell>
                <mxCell id="15" value="名称未設定レイヤ" style="" parent="0"/>
                <mxCell id="16" value="" style="rounded=0;whiteSpace=wrap;html=1;strokeColor=#23445d;fillColor=#E6E6E6;movable=0;resizable=0;rotatable=0;deletable=0;editable=0;connectable=0;" parent="15" vertex="1">
                    <mxGeometry width="1180" height="690" as="geometry"/>
                </mxCell>
                <mxCell id="17" value="" style="rounded=0;whiteSpace=wrap;html=1;movable=0;resizable=0;rotatable=0;deletable=0;editable=0;connectable=0;" parent="15" vertex="1">
                    <mxGeometry width="1180" height="40" as="geometry"/>
                </mxCell>
                <mxCell id="18" value="&lt;font style=&quot;vertical-align: inherit&quot;&gt;&lt;font style=&quot;vertical-align: inherit ; font-size: 19px&quot;&gt;経費計上入力&lt;/font&gt;&lt;/font&gt;" style="text;html=1;strokeColor=none;fillColor=none;align=left;verticalAlign=middle;whiteSpace=wrap;rounded=0;fontSize=14;movable=0;resizable=0;rotatable=0;deletable=0;editable=0;connectable=0;" parent="15" vertex="1">
                    <mxGeometry x="71.5" y="7" width="250" height="30" as="geometry"/>
                </mxCell>
                <mxCell id="19" value="" style="rounded=0;whiteSpace=wrap;html=1;fontSize=14;align=left;fillColor=#000000;gradientColor=#000000;movable=0;resizable=0;rotatable=0;deletable=0;editable=0;connectable=0;" parent="15" vertex="1">
                    <mxGeometry x="1010" y="18" width="20" height="5" as="geometry"/>
                </mxCell>
                <mxCell id="20" value="" style="verticalLabelPosition=bottom;verticalAlign=top;html=1;shape=mxgraph.basic.frame;dx=2.52;fontSize=14;fillColor=#f5f5f5;gradientColor=#b3b3b3;strokeColor=#666666;movable=0;resizable=0;rotatable=0;deletable=0;editable=0;connectable=0;" parent="15" vertex="1">
                    <mxGeometry x="1072.5" y="11" width="20" height="20" as="geometry"/>
                </mxCell>
                <mxCell id="21" value="" style="verticalLabelPosition=bottom;verticalAlign=top;html=1;shape=mxgraph.basic.x;fontSize=14;fillColor=#000000;gradientColor=#000000;movable=0;resizable=0;rotatable=0;deletable=0;editable=0;connectable=0;" parent="15" vertex="1">
                    <mxGeometry x="1133" y="11" width="20" height="20" as="geometry"/>
                </mxCell>
                <mxCell id="22" value="" style="rhombus;whiteSpace=wrap;html=1;strokeWidth=2;fillWeight=-1;hachureGap=8;fillStyle=cross-hatch;fillColor=#006600;sketch=1;movable=0;resizable=0;rotatable=0;deletable=0;editable=0;connectable=0;" parent="15" vertex="1">
                    <mxGeometry x="35" y="6.5" width="30" height="30" as="geometry"/>
                </mxCell>
                <mxCell id="23" value="" style="rounded=0;whiteSpace=wrap;html=1;movable=0;resizable=0;rotatable=0;deletable=0;editable=0;connectable=0;" parent="15" vertex="1">
                    <mxGeometry width="1180" height="40" as="geometry"/>
                </mxCell>
                <mxCell id="24" value="&lt;span style=&quot;font-size: 19px&quot;&gt;ページタイトル&lt;/span&gt;" style="text;html=1;strokeColor=none;fillColor=none;align=left;verticalAlign=middle;whiteSpace=wrap;rounded=0;fontSize=14;movable=0;resizable=0;rotatable=0;deletable=0;editable=0;connectable=0;" parent="15" vertex="1">
                    <mxGeometry x="71.5" y="7" width="250" height="30" as="geometry"/>
                </mxCell>
                <mxCell id="25" value="" style="rounded=0;whiteSpace=wrap;html=1;fontSize=14;align=left;fillColor=#000000;gradientColor=#000000;movable=0;resizable=0;rotatable=0;deletable=0;editable=0;connectable=0;" parent="15" vertex="1">
                    <mxGeometry x="1010" y="18" width="20" height="5" as="geometry"/>
                </mxCell>
                <mxCell id="26" value="" style="verticalLabelPosition=bottom;verticalAlign=top;html=1;shape=mxgraph.basic.frame;dx=2.52;fontSize=14;fillColor=#f5f5f5;gradientColor=#b3b3b3;strokeColor=#666666;movable=0;resizable=0;rotatable=0;deletable=0;editable=0;connectable=0;" parent="15" vertex="1">
                    <mxGeometry x="1072.5" y="11" width="20" height="20" as="geometry"/>
                </mxCell>
                <mxCell id="27" value="" style="verticalLabelPosition=bottom;verticalAlign=top;html=1;shape=mxgraph.basic.x;fontSize=14;fillColor=#000000;gradientColor=#000000;movable=0;resizable=0;rotatable=0;deletable=0;editable=0;connectable=0;" parent="15" vertex="1">
                    <mxGeometry x="1133" y="11" width="20" height="20" as="geometry"/>
                </mxCell>
                <mxCell id="28" value="" style="rhombus;whiteSpace=wrap;html=1;strokeWidth=2;fillWeight=-1;hachureGap=8;fillStyle=cross-hatch;fillColor=#006600;sketch=1;movable=0;resizable=0;rotatable=0;deletable=0;editable=0;connectable=0;" parent="15" vertex="1">
                    <mxGeometry x="35" y="6.5" width="30" height="30" as="geometry"/>
                </mxCell>
            </root>
        </mxGraphModel>
    </diagram>
</mxfile>